<svg width="18" height="18" viewBox="0 0 18 18" fill="none" xmlns="http://www.w3.org/2000/svg">
<path fill-rule="evenodd" clip-rule="evenodd" d="M9.00001 9.92819L1.52911 17.3986C1.27299 17.6551 0.857402 17.6551 0.601285 17.3983C0.344899 17.1421 0.345167 16.7264 0.601285 16.4699L8.07165 9.00003L0.601285 1.52991C0.345167 1.27343 0.344899 0.857958 0.601285 0.601479C0.857402 0.345 1.27299 0.345 1.52911 0.601211L9.00001 8.0716L16.4706 0.601211C16.727 0.345 17.1426 0.345 17.3987 0.601479C17.6551 0.857958 17.6548 1.27343 17.3987 1.52991L9.92836 9.00003L17.3987 16.4699C17.6548 16.7264 17.6551 17.1421 17.3987 17.3983C17.1426 17.6551 16.727 17.6551 16.4706 17.3986L9.00001 9.92819Z" fill="black"/>
</svg>
